<svg width="512" height="512" viewBox="0 0 512 512" fill="none" xmlns="http://www.w3.org/2000/svg">
<rect width="512" height="512" fill="#0770E3"/>
<mask id="mask0_13_52" style="mask-type:alpha" maskUnits="userSpaceOnUse" x="66" y="66" width="380" height="380">
<rect x="66" y="66" width="380" height="380" fill="#D9D9D9"/>
</mask>
<g mask="url(#mask0_13_52)">
<path d="M97.667 398.5V372.11H161.527V300.333H127.224V273.943H162.318C164.255 252.568 172.547 234.646 187.193 220.177C201.838 205.708 220.377 197.066 242.807 194.25V113.5H350.474V173.14H269.193V194.25C291.624 197.066 310.162 205.708 324.808 220.177C339.454 234.646 347.745 252.568 349.682 273.943H384.777V300.333H350.474V372.11H414.334V398.5H97.667ZM187.917 372.11H242.807V300.333H187.917V372.11ZM269.193 372.11H324.084V300.333H269.193V372.11ZM189.5 273.943H322.5C320.389 258.023 313.132 244.983 300.73 234.823C288.327 224.663 273.417 219.583 256 219.583C238.584 219.583 223.674 224.663 211.271 234.823C198.868 244.983 191.611 258.023 189.5 273.943Z" fill="white"/>
</g>
</svg>
